<svg width="3150" height="912" viewBox="0 0 3150 912" fill="none" xmlns="http://www.w3.org/2000/svg">
<path d="M2893.98 294.511V318.021H2916.19H2938.39V294.511V271H2916.19H2893.98V294.511Z" fill="#00105E"/>
<path d="M1629.63 413.893V551.822L1653.14 551.039L1676.65 550.255V519.43V488.866L1690.75 475.021C1698.59 467.445 1705.91 461.698 1707.21 462.481C1708.52 463.265 1722.62 483.38 1738.3 507.152L1766.77 550.255L1794.99 551.039C1810.4 551.561 1822.94 551.561 1822.94 551.039C1822.94 550.516 1804.65 524.654 1782.19 493.829C1759.72 463.004 1741.17 436.097 1740.91 434.53C1740.91 432.701 1757.37 413.893 1778.01 392.472C1798.38 371.312 1815.1 353.81 1815.1 353.548C1815.1 353.548 1802.56 353.548 1787.15 353.81L1759.2 354.332L1717.4 396.129L1675.34 438.187L1676.13 357.206L1676.91 276.224H1653.14H1629.63V413.893Z" fill="#00105E"/>
<path d="M987 414.676C987 487.821 987 548.688 987 549.471C987 550.255 997.449 551.039 1010.51 551.3L1034.02 551.822V498.792V446.024H1053.09H1072.16L1099.85 497.486L1127.8 549.21L1153.93 550.516C1168.56 551.3 1180.31 551.039 1180.31 549.994C1180.31 548.426 1153.14 498.792 1130.15 457.779C1123.62 446.546 1121.01 439.232 1122.84 438.709C1124.41 438.187 1133.03 432.701 1141.65 426.693C1170.12 407.362 1180.57 377.843 1171.43 342.054C1163.59 310.968 1144.52 292.42 1112.65 285.106C1102.99 282.755 1079.48 281.449 1042.64 281.449H987V414.676ZM1106.9 325.858C1119.44 332.127 1125.45 344.144 1125.45 363.736C1125.45 379.933 1121.79 389.076 1111.08 399.002C1104.55 405.011 1101.94 405.533 1069.03 406.839L1034.02 408.146V364.259V320.633H1065.37C1091.49 320.633 1098.55 321.417 1106.9 325.858Z" fill="#00105E"/>
<path d="M2245.35 416.504C2245.87 490.954 2246.65 551.56 2247.44 551.037C2248.22 550.776 2258.67 550.515 2270.95 550.515H2293.15V498.269V446.023H2312.22H2331.29L2359.24 498.008L2387.46 550.254L2413.58 551.037C2428.21 551.56 2440.22 551.299 2440.75 550.776C2441.27 550.254 2440.22 547.38 2438.13 544.245C2436.04 541.372 2422.2 516.555 2407.05 489.387L2379.88 440.276L2395.82 429.304C2416.71 415.198 2425.33 403.965 2430.3 383.85C2440.49 344.665 2420.37 302.869 2384.84 288.762C2371.52 283.537 2364.99 282.754 2307.52 281.97L2244.82 280.925L2245.35 416.504ZM2363.68 325.334C2377.53 332.126 2385.37 349.106 2383.8 368.437C2382.23 385.679 2377.53 394.56 2365.51 401.614C2358.46 406.055 2352.19 406.838 2325.28 406.838H2293.15V363.735V320.632H2323.98C2347.75 320.632 2356.63 321.677 2363.68 325.334Z" fill="#00105E"/>
<path d="M2078.94 325.857V354.592H2056.74H2034.53V372.878V391.164H2056.74H2078.94V450.464C2078.94 517.861 2080.51 524.653 2098.54 539.543C2112.38 550.776 2128.84 554.172 2162.28 552.344C2202.77 549.993 2201.72 550.776 2201.72 529.617V511.853L2170.9 513.159C2135.37 514.988 2130.14 513.159 2125.96 498.791C2124.66 493.567 2123.35 467.183 2123.35 440.015V391.164H2161.23H2199.37L2198.59 372.617L2197.8 354.07L2161.23 353.809L2124.66 353.286L2124.4 325.857L2123.87 298.428L2101.41 297.644L2078.94 296.86V325.857Z" fill="#00105E"/>
<path d="M3027.21 326.12V354.855L3006.05 354.333L2984.89 353.81L2984.63 372.357L2984.11 391.166H3005.79H3027.21V447.592C3027.21 511.854 3028.78 520.736 3043.41 535.365C3057.77 549.733 3076.06 554.435 3109.5 552.084C3151.82 549.472 3149.99 550.517 3149.99 529.618V511.854L3119.42 513.161C3090.43 514.467 3088.08 514.206 3081.55 508.72L3074.23 503.234V447.069V391.166H3110.8H3147.64L3146.85 372.619L3146.07 354.071L3110.28 354.333L3074.23 354.855V325.858V297.123H3050.72H3027.21V326.12Z" fill="#00105E"/>
<path d="M1259.73 354.854C1238.83 361.384 1219.76 378.103 1210.09 398.479C1203.82 411.541 1202.78 417.288 1201.73 444.978C1199.64 501.665 1213.49 528.833 1253.46 547.642C1265.73 553.389 1271.22 554.434 1292.64 554.434C1313.8 554.434 1319.55 553.389 1331.82 547.642C1352.46 537.976 1364.48 526.482 1374.14 506.628C1382.76 489.387 1382.76 488.604 1382.76 452.554C1382.76 417.549 1382.5 415.198 1375.19 399.524C1356.12 357.988 1307.79 339.441 1259.73 354.854ZM1313.8 392.732C1331.3 401.614 1338.62 424.341 1336.53 461.958C1334.18 500.62 1321.38 516.555 1292.64 516.555C1275.14 516.555 1263.38 510.024 1255.02 495.918C1247.97 483.64 1245.88 439.753 1251.63 419.639C1259.99 390.903 1287.42 378.887 1313.8 392.732Z" fill="#00105E"/>
<path d="M1477.59 353.025C1450.16 360.862 1429 381.761 1420.38 409.19C1413.07 433.223 1413.07 472.146 1420.38 495.918C1432.92 535.887 1469.75 558.614 1514.95 554.957C1553.09 551.822 1580.25 530.14 1589.92 494.874L1592.53 485.208H1567.98C1544.73 485.208 1543.42 485.469 1543.42 490.694C1543.42 498.792 1527.75 513.16 1516.78 515.25C1502.41 517.862 1487.78 512.637 1477.33 500.882C1465.31 487.82 1461.66 473.714 1462.96 446.023C1464.27 420.162 1471.06 404.227 1485.69 394.561C1504.24 382.022 1533.76 389.859 1539.5 408.929L1541.85 417.288H1566.15H1590.44L1588.61 408.667C1584.17 385.157 1569.02 366.609 1546.29 356.683C1530.88 349.891 1494.83 348.062 1477.59 353.025Z" fill="#00105E"/>
<path d="M1897.39 352.766C1861.34 364.782 1842.01 389.338 1835.74 431.135C1828.42 479.463 1846.45 525.439 1879.36 543.203C1923.25 566.714 1984.38 553.652 2002.93 516.818C2013.9 495.398 2014.16 495.659 1989.6 495.659C1968.18 495.659 1967.92 495.659 1960.87 504.541C1943.1 526.745 1903.4 522.566 1886.68 496.704C1884.33 493.308 1881.71 485.21 1880.93 478.679L1879.62 466.923H1946.76H2013.64V446.286C2013.64 405.534 1996.92 373.403 1968.18 358.774C1955.64 352.243 1949.63 350.937 1930.56 350.153C1916.72 349.631 1903.66 350.676 1897.39 352.766ZM1948.33 390.644C1958.52 395.608 1965.31 406.057 1967.92 420.424L1969.75 430.351H1925.08H1880.67L1882.24 421.731C1885.37 405.273 1893.73 394.04 1906.53 388.816C1916.98 384.636 1938.4 385.42 1948.33 390.644Z" fill="#00105E"/>
<path d="M2525.65 352.763C2501.09 359.555 2483.07 375.49 2471.57 400.307C2464.78 414.936 2464.26 418.071 2464.26 451.247C2464.26 484.685 2464.78 487.297 2471.83 502.971C2489.86 542.155 2532.18 562.27 2576.59 553.127C2596.7 548.947 2608.2 542.939 2620.21 530.4C2629.09 521.257 2637.98 505.061 2637.98 498.269C2637.98 496.701 2629.62 495.656 2616.82 495.656C2596.44 495.656 2595.66 495.918 2588.86 503.755C2576.06 519.167 2554.64 523.347 2534.53 514.204C2528.52 511.591 2521.47 505.844 2518.59 501.926C2513.63 494.873 2507.36 477.37 2507.36 470.056C2507.36 467.705 2522.77 466.921 2575.54 466.921H2643.98L2642.42 443.933C2639.28 398.74 2623.09 370.788 2592.26 356.943C2576.33 349.89 2543.15 347.8 2525.65 352.763ZM2575.02 390.642C2586.77 396.65 2593.57 406.054 2595.4 419.377L2596.96 430.349H2553.34H2509.97V424.34C2509.97 413.891 2521.21 396.128 2530.87 390.903C2542.37 384.633 2563.26 384.372 2575.02 390.642Z" fill="#00105E"/>
<path d="M2655.22 357.205C2656 359.294 2671.15 403.965 2688.66 456.211L2720.53 551.299L2746.39 550.776C2760.76 550.515 2773.29 549.47 2774.08 548.425C2775.38 546.597 2841.74 356.943 2841.74 354.331C2841.74 353.809 2831.81 353.547 2819.79 354.07C2802.03 354.854 2797.33 355.898 2796.02 359.294C2791.06 371.833 2750.31 500.098 2750.31 502.71C2750.31 514.727 2744.04 499.053 2729.67 450.464C2720.26 420.161 2710.08 385.94 2706.68 374.968L2700.67 354.854L2677.16 354.07C2657.05 353.286 2653.91 353.809 2655.22 357.205Z" fill="#00105E"/>
<path d="M2854.8 372.096V391.166H2875.7H2896.59V452.555V513.944H2874.39H2852.19V532.752V551.822L2917.49 551.039L2982.8 550.255V532.23V513.944H2960.6H2938.39V433.485V353.287H2896.59H2854.8V372.096Z" fill="#00105E"/>
<path d="M793.998 399.272L798.251 398.021L902.041 750.451L894.367 752.711L894.366 752.707V754.43H11.2959V752.6L4 750.451L107.79 398.021L111.949 399.245V394H793.998V399.272ZM713.15 627.251L737.256 746.43H892.518L857.42 627.251H713.15ZM13.5234 746.43H172.351L196.456 627.251H49.79V623.282L13.5234 746.43ZM180.513 746.43H357.532L365.054 627.251H204.618L180.513 746.43ZM365.548 746.43H542.111L534.59 627.251H373.069L365.548 746.43ZM550.127 746.43H729.095L704.988 627.251H542.605L550.127 746.43ZM687.89 502.36L711.532 619.251H855.063L820.64 502.36H687.89ZM50.9775 619.251H198.074L221.718 502.36H86.2871V499.353L50.9775 619.251ZM206.236 619.251H365.559L372.935 502.36H229.879L206.236 619.251ZM373.574 619.251H534.085L526.709 502.36H380.95L373.574 619.251ZM542.101 619.251H703.371L679.728 502.36H534.725L542.101 619.251ZM667.59 402L686.271 494.36H818.283L791.084 402H667.59ZM87.7578 494.36H223.336L242.018 402H114.957L87.7578 494.36ZM231.497 494.36H373.439L379.268 402H250.179L231.497 494.36ZM381.455 494.36H526.204L520.375 402H387.284L381.455 494.36ZM534.22 494.36H678.109L659.429 402H528.392L534.22 494.36Z" fill="black"/>
<path d="M793.998 399.272H791.498V402.614L794.704 401.671L793.998 399.272ZM798.251 398.021L800.649 397.314L799.943 394.916L797.545 395.622L798.251 398.021ZM902.041 750.451L902.747 752.849L905.145 752.143L904.439 749.745L902.041 750.451ZM894.367 752.711L891.942 753.317L892.574 755.845L895.073 755.109L894.367 752.711ZM894.366 752.707L896.792 752.101L891.866 752.707H894.366ZM894.366 754.43V756.93H896.866V754.43H894.366ZM11.2959 754.43H8.7959V756.93H11.2959V754.43ZM11.2959 752.6H13.7959V750.73L12.0021 750.201L11.2959 752.6ZM4 750.451L1.60183 749.745L0.895562 752.143L3.2938 752.849L4 750.451ZM107.79 398.021L108.496 395.622L106.098 394.916L105.392 397.314L107.79 398.021ZM111.949 399.245L111.243 401.643L114.449 402.587V399.245H111.949ZM111.949 394V391.5H109.449V394H111.949ZM793.998 394H796.498V391.5H793.998V394ZM713.15 627.251V624.751H710.094L710.7 627.747L713.15 627.251ZM737.256 746.43L734.805 746.925L735.211 748.93H737.256V746.43ZM892.518 746.43V748.93H895.86L894.916 745.723L892.518 746.43ZM857.42 627.251L859.818 626.545L859.29 624.751H857.42V627.251ZM13.5234 746.43L11.1253 745.723L10.181 748.93H13.5234V746.43ZM172.351 746.43V748.93H174.396L174.801 746.925L172.351 746.43ZM196.456 627.251L198.906 627.747L199.512 624.751H196.456V627.251ZM49.79 627.251H47.29V629.751H49.79V627.251ZM49.79 623.282H52.29L47.3919 622.576L49.79 623.282ZM180.513 746.43L178.062 745.934L177.456 748.93H180.513V746.43ZM357.532 746.43V748.93H359.879L360.027 746.587L357.532 746.43ZM365.054 627.251L367.549 627.408L367.716 624.751H365.054V627.251ZM204.618 627.251V624.751H202.573L202.168 626.755L204.618 627.251ZM365.548 746.43L363.053 746.272L362.885 748.93H365.548V746.43ZM542.111 746.43V748.93H544.774L544.606 746.272L542.111 746.43ZM534.59 627.251L537.085 627.094L536.937 624.751H534.59V627.251ZM373.069 627.251V624.751H370.722L370.574 627.094L373.069 627.251ZM550.127 746.43L547.632 746.587L547.78 748.93H550.127V746.43ZM729.095 746.43V748.93H732.151L731.545 745.934L729.095 746.43ZM704.988 627.251L707.439 626.755L707.033 624.751H704.988V627.251ZM542.605 627.251V624.751H539.943L540.11 627.408L542.605 627.251ZM687.89 502.36V499.86H684.833L685.439 502.856L687.89 502.36ZM711.532 619.251L709.082 619.747L709.487 621.751H711.532V619.251ZM855.063 619.251V621.751H858.406L857.462 618.545L855.063 619.251ZM820.64 502.36L823.038 501.654L822.51 499.86H820.64V502.36ZM50.9775 619.251L48.5794 618.545L47.6351 621.751H50.9775V619.251ZM198.074 619.251V621.751H200.119L200.525 619.747L198.074 619.251ZM221.718 502.36L224.168 502.856L224.774 499.86H221.718V502.36ZM86.2871 502.36H83.7871V504.86H86.2871V502.36ZM86.2871 499.353H88.7871L83.8889 498.646L86.2871 499.353ZM206.236 619.251L203.786 618.755L203.18 621.751H206.236V619.251ZM365.559 619.251V621.751H367.906L368.054 619.408L365.559 619.251ZM372.935 502.36L375.43 502.518L375.597 499.86H372.935V502.36ZM229.879 502.36V499.86H227.834L227.429 501.865L229.879 502.36ZM373.574 619.251L371.079 619.094L370.911 621.751H373.574V619.251ZM534.085 619.251V621.751H536.748L536.58 619.094L534.085 619.251ZM526.709 502.36L529.204 502.203L529.056 499.86H526.709V502.36ZM380.95 502.36V499.86H378.603L378.455 502.203L380.95 502.36ZM542.101 619.251L539.606 619.408L539.753 621.751H542.101V619.251ZM703.371 619.251V621.751H706.427L705.821 618.755L703.371 619.251ZM679.728 502.36L682.178 501.865L681.772 499.86H679.728V502.36ZM534.725 502.36V499.86H532.062L532.23 502.518L534.725 502.36ZM667.59 402V399.5H664.534L665.139 402.496L667.59 402ZM686.271 494.36L683.821 494.856L684.227 496.86H686.271V494.36ZM818.283 494.36V496.86H821.626L820.681 493.654L818.283 494.36ZM791.084 402L793.482 401.294L792.954 399.5H791.084V402ZM87.7578 494.36L85.3596 493.654L84.4154 496.86H87.7578V494.36ZM223.336 494.36V496.86H225.381L225.786 494.856L223.336 494.36ZM242.018 402L244.468 402.496L245.074 399.5H242.018V402ZM114.957 402V399.5H113.087L112.559 401.294L114.957 402ZM231.497 494.36L229.047 493.865L228.441 496.86H231.497V494.36ZM373.439 494.36V496.86H375.787L375.934 494.518L373.439 494.36ZM379.268 402L381.763 402.157L381.93 399.5H379.268V402ZM250.179 402V399.5H248.134L247.728 401.504L250.179 402ZM381.455 494.36L378.96 494.203L378.792 496.86H381.455V494.36ZM526.204 494.36V496.86H528.867L528.699 494.203L526.204 494.36ZM520.375 402L522.87 401.843L522.722 399.5H520.375V402ZM387.284 402V399.5H384.937L384.789 401.843L387.284 402ZM534.22 494.36L531.725 494.518L531.873 496.86H534.22V494.36ZM678.109 494.36V496.86H681.166L680.56 493.865L678.109 494.36ZM659.429 402L661.879 401.504L661.474 399.5H659.429V402ZM528.392 402V399.5H525.729L525.897 402.157L528.392 402ZM793.998 399.272L794.704 401.671L798.957 400.419L798.251 398.021L797.545 395.622L793.292 396.874L793.998 399.272ZM798.251 398.021L795.853 398.727L899.643 751.157L902.041 750.451L904.439 749.745L800.649 397.314L798.251 398.021ZM902.041 750.451L901.335 748.053L893.661 750.313L894.367 752.711L895.073 755.109L902.747 752.849L902.041 750.451ZM894.367 752.711L896.793 752.105L896.792 752.101L894.366 752.707L891.941 753.313L891.942 753.317L894.367 752.711ZM894.366 752.707H891.866V754.43H894.366H896.866V752.707H894.366ZM894.366 754.43V751.93H11.2959V754.43V756.93H894.366V754.43ZM11.2959 754.43H13.7959V752.6H11.2959H8.7959V754.43H11.2959ZM11.2959 752.6L12.0021 750.201L4.7062 748.053L4 750.451L3.2938 752.849L10.5897 754.998L11.2959 752.6ZM4 750.451L6.39817 751.157L110.188 398.727L107.79 398.021L105.392 397.314L1.60183 749.745L4 750.451ZM107.79 398.021L107.084 400.419L111.243 401.643L111.949 399.245L112.655 396.847L108.496 395.622L107.79 398.021ZM111.949 399.245H114.449V394H111.949H109.449V399.245H111.949ZM111.949 394V396.5H793.998V394V391.5H111.949V394ZM793.998 394H791.498V399.272H793.998H796.498V394H793.998ZM713.15 627.251L710.7 627.747L734.805 746.925L737.256 746.43L739.706 745.934L715.601 626.755L713.15 627.251ZM737.256 746.43V748.93H892.518V746.43V743.93H737.256V746.43ZM892.518 746.43L894.916 745.723L859.818 626.545L857.42 627.251L855.022 627.957L890.119 747.136L892.518 746.43ZM857.42 627.251V624.751H713.15V627.251V629.751H857.42V627.251ZM13.5234 746.43V748.93H172.351V746.43V743.93H13.5234V746.43ZM172.351 746.43L174.801 746.925L198.906 627.747L196.456 627.251L194.006 626.755L169.9 745.934L172.351 746.43ZM196.456 627.251V624.751H49.79V627.251V629.751H196.456V627.251ZM49.79 627.251H52.29V623.282H49.79H47.29V627.251H49.79ZM49.79 623.282L47.3919 622.576L11.1253 745.723L13.5234 746.43L15.9216 747.136L52.1882 623.988L49.79 623.282ZM180.513 746.43V748.93H357.532V746.43V743.93H180.513V746.43ZM357.532 746.43L360.027 746.587L367.549 627.408L365.054 627.251L362.559 627.094L355.037 746.272L357.532 746.43ZM365.054 627.251V624.751H204.618V627.251V629.751H365.054V627.251ZM204.618 627.251L202.168 626.755L178.062 745.934L180.513 746.43L182.963 746.925L207.069 627.747L204.618 627.251ZM365.548 746.43V748.93H542.111V746.43V743.93H365.548V746.43ZM542.111 746.43L544.606 746.272L537.085 627.094L534.59 627.251L532.095 627.408L539.616 746.587L542.111 746.43ZM534.59 627.251V624.751H373.069V627.251V629.751H534.59V627.251ZM373.069 627.251L370.574 627.094L363.053 746.272L365.548 746.43L368.043 746.587L375.564 627.408L373.069 627.251ZM550.127 746.43V748.93H729.095V746.43V743.93H550.127V746.43ZM729.095 746.43L731.545 745.934L707.439 626.755L704.988 627.251L702.538 627.747L726.644 746.925L729.095 746.43ZM704.988 627.251V624.751H542.605V627.251V629.751H704.988V627.251ZM542.605 627.251L540.11 627.408L547.632 746.587L550.127 746.43L552.622 746.272L545.101 627.094L542.605 627.251ZM687.89 502.36L685.439 502.856L709.082 619.747L711.532 619.251L713.983 618.755L690.34 501.865L687.89 502.36ZM711.532 619.251V621.751H855.063V619.251V616.751H711.532V619.251ZM855.063 619.251L857.462 618.545L823.038 501.654L820.64 502.36L818.241 503.067L852.665 619.957L855.063 619.251ZM820.64 502.36V499.86H687.89V502.36V504.86H820.64V502.36ZM50.9775 619.251V621.751H198.074V619.251V616.751H50.9775V619.251ZM198.074 619.251L200.525 619.747L224.168 502.856L221.718 502.36L219.267 501.865L195.624 618.755L198.074 619.251ZM221.718 502.36V499.86H86.2871V502.36V504.86H221.718V502.36ZM86.2871 502.36H88.7871V499.353H86.2871H83.7871V502.36H86.2871ZM86.2871 499.353L83.8889 498.646L48.5794 618.545L50.9775 619.251L53.3757 619.957L88.6853 500.059L86.2871 499.353ZM206.236 619.251V621.751H365.559V619.251V616.751H206.236V619.251ZM365.559 619.251L368.054 619.408L375.43 502.518L372.935 502.36L370.44 502.203L363.064 619.094L365.559 619.251ZM372.935 502.36V499.86H229.879V502.36V504.86H372.935V502.36ZM229.879 502.36L227.429 501.865L203.786 618.755L206.236 619.251L208.687 619.747L232.329 502.856L229.879 502.36ZM373.574 619.251V621.751H534.085V619.251V616.751H373.574V619.251ZM534.085 619.251L536.58 619.094L529.204 502.203L526.709 502.36L524.214 502.518L531.59 619.408L534.085 619.251ZM526.709 502.36V499.86H380.95V502.36V504.86H526.709V502.36ZM380.95 502.36L378.455 502.203L371.079 619.094L373.574 619.251L376.069 619.408L383.445 502.518L380.95 502.36ZM542.101 619.251V621.751H703.371V619.251V616.751H542.101V619.251ZM703.371 619.251L705.821 618.755L682.178 501.865L679.728 502.36L677.277 502.856L700.921 619.747L703.371 619.251ZM679.728 502.36V499.86H534.725V502.36V504.86H679.728V502.36ZM534.725 502.36L532.23 502.518L539.606 619.408L542.101 619.251L544.596 619.094L537.22 502.203L534.725 502.36ZM667.59 402L665.139 402.496L683.821 494.856L686.271 494.36L688.722 493.865L670.04 401.504L667.59 402ZM686.271 494.36V496.86H818.283V494.36V491.86H686.271V494.36ZM818.283 494.36L820.681 493.654L793.482 401.294L791.084 402L788.686 402.706L815.885 495.067L818.283 494.36ZM791.084 402V399.5H667.59V402V404.5H791.084V402ZM87.7578 494.36V496.86H223.336V494.36V491.86H87.7578V494.36ZM223.336 494.36L225.786 494.856L244.468 402.496L242.018 402L239.567 401.504L220.886 493.865L223.336 494.36ZM242.018 402V399.5H114.957V402V404.5H242.018V402ZM114.957 402L112.559 401.294L85.3596 493.654L87.7578 494.36L90.156 495.067L117.355 402.706L114.957 402ZM231.497 494.36V496.86H373.439V494.36V491.86H231.497V494.36ZM373.439 494.36L375.934 494.518L381.763 402.157L379.268 402L376.773 401.843L370.944 494.203L373.439 494.36ZM379.268 402V399.5H250.179V402V404.5H379.268V402ZM250.179 402L247.728 401.504L229.047 493.865L231.497 494.36L233.947 494.856L252.629 402.496L250.179 402ZM381.455 494.36V496.86H526.204V494.36V491.86H381.455V494.36ZM526.204 494.36L528.699 494.203L522.87 401.843L520.375 402L517.88 402.157L523.709 494.518L526.204 494.36ZM520.375 402V399.5H387.284V402V404.5H520.375V402ZM387.284 402L384.789 401.843L378.96 494.203L381.455 494.36L383.95 494.518L389.779 402.157L387.284 402ZM534.22 494.36V496.86H678.109V494.36V491.86H534.22V494.36ZM678.109 494.36L680.56 493.865L661.879 401.504L659.429 402L656.978 402.496L675.659 494.856L678.109 494.36ZM659.429 402V399.5H528.392V402V404.5H659.429V402ZM528.392 402L525.897 402.157L531.725 494.518L534.22 494.36L536.715 494.203L530.887 401.843L528.392 402Z" fill="#00105E"/>
<path d="M360.342 704.83C356.471 733.377 365.422 758.295 406.307 832.565C439.934 893.288 452.514 913.609 454.691 911.432C459.288 906.835 505.737 828.936 516.623 807.889C543.961 753.94 552.67 705.072 539.122 684.751C533.074 676.283 529.485 676.283 511.583 673.38C488.843 669.993 412.067 669.026 385.456 673.38C376.505 674.59 371.491 677.115 369.314 679.292C367.137 681.47 362.035 692.976 360.342 704.83Z" fill="#FF0000"/>
<path d="M426.267 755.59C426.267 755.59 419.461 766.108 416.987 761.159C414.512 756.209 411.888 748.203 410.181 739.505C408.407 730.468 408.325 715.995 408.325 715.995C408.325 715.995 408.31 702.248 410.181 693.723C412.23 684.387 418.843 670.832 418.843 670.832H488.134C488.134 670.832 493.613 684.529 495.558 693.723C497.37 702.285 497.982 707.244 498.033 715.995C498.086 725.227 495.558 739.505 495.558 739.505C495.558 739.505 490.609 759.921 488.134 761.159C485.66 762.396 480.091 755.59 480.091 755.59C480.091 755.59 473.308 771.457 467.718 780.956C462.347 790.082 456.582 803.847 452.251 803.228C447.92 802.61 442.436 790.118 437.403 780.956C432.194 771.474 426.267 755.59 426.267 755.59Z" fill="#FF9F31"/>
<path d="M447.48 415.786L627.663 393.264L666.818 461.525L529.948 557.853L447.48 415.786Z" fill="#065A9A"/>
<rect x="178.246" y="28.4141" width="180.875" height="186.419" fill="#065A9A"/>
<rect x="178.246" y="239.781" width="180.875" height="193.349" fill="#065A9A"/>
<rect x="178.246" y="451.842" width="182.261" height="189.884" fill="#065A9A"/>
<path d="M539.304 574.831L676.866 479.889L770.075 641.706H577.073L539.304 574.831Z" fill="#065A9A"/>
<path d="M513.961 0.337891C643.497 6.92243 721.42 108.883 721.42 220.047C721.42 340.984 634.037 441.27 482.487 433.13H178.882C178.882 361.89 178.744 300.288 178.598 240.509H359.501L360.39 239.908L405.562 209.35V216.187C405.56 216.364 405.558 216.542 405.558 216.72C405.558 216.897 405.56 217.075 405.562 217.252V288.689H488.162C489.712 288.757 491.273 288.792 492.844 288.792C496.509 288.963 500.076 288.924 503.537 288.689H504.557V288.613C546.342 285.294 572.572 253.222 572.572 216.72C572.572 176.915 540.69 141.373 492.844 144.646H405.562V180.745L403.537 182.172L358.696 213.764L178.572 214.798H178.535C178.387 154.657 178.247 95.2311 178.247 28.4131C194.191 20.7938 191.007 23.0162 204.479 16.5781L222.33 8.04785L239.171 0H513.961V0.337891Z" fill="#2A95D9"/>
<path d="M360.508 642.052V452.368L402.781 429.299V613.444L360.508 642.052Z" fill="#2A95D9"/>
<path d="M402.781 490.284L360.161 452.515L395.158 433.457H402.781V490.284Z" fill="#065A9A"/>
<path d="M178.309 238.715H358.843V432.983H178.309V238.715Z" fill="#065A9A"/>
<path d="M178.06 28.4668H359.343V215.494L178.309 216.493L178.06 28.4668Z" fill="#065A9A"/>
<path d="M405.37 288.619C390.209 296.723 359.677 313.07 358.844 313.626L501.896 313.279C501.896 313.279 511.326 312.107 517.173 310.5C521.887 309.204 524.555 308.414 528.979 306.332C532.661 304.599 534.558 303.286 538.006 301.122C542.052 298.583 544.372 297.194 548.075 294.176L548.238 294.043C551.93 291.034 554.1 289.265 557.103 285.493C560.246 281.544 561.405 278.874 563.7 274.378C565.854 270.159 566.974 267.728 568.561 263.264C570.071 259.016 570.808 256.572 571.686 252.15C572.642 247.331 573.182 244.558 573.075 239.646C572.985 235.542 571.686 229.227 571.686 229.227C571.686 229.227 569.965 235.637 568.561 239.646C566.912 244.353 566.038 247.05 563.7 251.455C561.495 255.609 560.058 257.87 557.103 261.528C553.969 265.407 551.872 267.326 548.075 270.558C544.378 273.705 542.173 275.359 538.006 277.852C533.373 280.623 530.576 281.899 525.506 283.756C519.855 285.826 516.519 286.628 510.576 287.577C505.205 288.434 502.127 288.619 496.688 288.619H405.37Z" fill="#065A9A"/>
</svg>
